<?xml version="1.0" encoding="UTF-8"?><svg id="Capa_1" xmlns="http://www.w3.org/2000/svg" viewBox="0 0 332.49 35.11"><defs><style>.cls-1{fill:#efacac;stroke-width:0px;}</style></defs><path class="cls-1" d="M329.72,25.6c-1.13,2.1-2.82,3.63-4.76,4.68,1.69-2.42,2.82-5.89,1.29-8.55-1.53-2.74-5.89-3.39-8.55-2.18-3.14,1.45-2.98,4.84-1.13,7.26,1.13,1.53,3.71,0,2.58-1.53-2.1-2.82,1.21-3.87,3.31-3.06,2.34.97,1.53,3.71.65,5.4-1.45,2.82-4.11,4.19-7.18,4.52h-.08c-1.69,0-3.47-.32-5-.65-5.48-1.29-10.4-4.03-15.24-6.93,10.24-1.37,19.11-6.77,25.64-14.76,1.21-1.45-.89-3.55-2.1-2.1-6.45,7.98-15.32,13.3-25.72,14.11-.73,0-1.45.08-2.18.08h-.73c-3.47,0-6.93-.32-10.32-.89.24-2.26,0-4.52-.97-6.53-.32-.73-.73-1.45-1.21-2.02,3.39,1.05,6.69,1.94,9.92,2.26,5.72.56,12.26,1.21,16.37-3.71,2.1-2.5,4.11-8.31.65-10.72-1.61-1.13-3.06,1.45-1.53,2.58.32.24.32,1.94.32,2.34-.16,1.61-1.05,3.14-2.1,4.27-2.34,2.5-5.32,2.5-8.55,2.42-6.77-.08-12.66-1.77-19.03-3.87-9.43-3.14-19.19-4.27-26.85,3.23-8.39-2.74-16.85-5.48-25.4-7.66-9.51-2.42-19.59-3.39-28.7.65-6.05,2.66-11.05,7.1-14.84,12.34-2.26,2.82-3.95,6.29-5.72,9.11-.56.89,0,1.77.73,2.1.65.56,1.69.65,2.1-.32.89-1.94,1.85-3.79,2.9-5.56.89-1.53,1.85-2.98,2.98-4.27,2.42-2.9,5.97-3.71,9.6-3.63,3.71,0,7.34,1.05,10.8,2.42.08,0,.24.16.4.16,5.08,1.61,7.66,7.5,11.69,10.72,3.79,3.14,8.71,5.24,13.47,3.06,1.69-.73,3.14-1.94,4.27-3.47,4.03-.24,7.66-1.85,10.4-5.97,1.05-1.61-1.53-3.06-2.58-1.53-1.69,2.5-3.87,3.79-6.21,4.27.4-1.53.48-3.06,0-4.68-1.29-3.95-6.53-6.85-10-3.87-1.45,1.29.65,3.31,2.1,2.1,1.13-.97,3.39.16,4.11.97.97.97,1.29,2.42,1.13,3.71,0,.65-.24,1.37-.56,1.94-2.66-.08-5.48-.89-8.14-1.77-5.97-2.1-11.45-5.4-17.34-7.9-.48-.24-1.05-.48-1.53-.65h0c-.24-.08-.48-.16-.73-.32-4.6-1.69-9.76-2.9-14.67-2.18,2.1-1.61,4.35-3.06,6.85-4.19,10.4-4.6,21.85-2.1,32.25,1.05,11.69,3.47,23.3,7.26,34.91,10.89,4.92,1.53,9.92,3.06,15,4.27-1.21,3.06-3.79,5.89-7.42,5.72-1.61,0-3.87-.89-5-1.94-1.53-1.37-1.45-3.23-1.05-5.08s-2.42-2.66-2.9-.81c-1.05,4.6.48,7.9,4.84,9.76,4.35,1.85,9.51.73,12.5-3.14.89-1.13,1.61-2.5,2.02-3.95,3.63.65,7.26,1.05,10.97,1.05,7.1,4.43,14.51,9.03,22.98,10.08,7.1.81,15.24-1.29,18.87-7.9.89-1.69-1.69-3.14-2.58-1.53v.32ZM227.64,26.89s-.48.4-.81.56c-3.95,2.34-8.22.24-11.37-2.42-1.37-1.13-2.58-2.5-3.71-3.87,0,0,.16,0,.24.08,4.6,2.18,10.16,4.84,15.56,5.56l.08.08ZM257.24,14.63c-2.26-.73-4.52-1.45-6.77-2.18,5-4.19,10.64-4.35,16.45-3.23.08,0,.24.08.32.16,2.66.65,5.4,1.53,7.42,3.55s2.82,4.76,2.5,7.5c-6.77-1.45-13.38-3.79-19.92-5.81Z"/><path class="cls-1" d="M154.51,16.97c-3.23-4.43-7.18-8.31-12.01-11.05-8.39-4.76-18.06-5.08-27.33-3.23-10.08,2.02-20,5.48-29.75,8.71-7.66-7.58-17.34-6.45-26.85-3.31-6.13,2.02-11.93,3.71-18.46,3.87-3.23,0-6.37.24-8.87-2.18-1.13-1.05-2.18-2.66-2.34-4.19,0-.48-.16-2.42.24-2.74,1.53-1.05,0-3.63-1.53-2.58-3.31,2.26-1.61,7.9.4,10.4,4.03,5.16,10.64,4.6,16.61,4.03,3.23-.32,6.53-1.21,9.92-2.26-.32.48-.65,1.05-.97,1.61-1.05,2.18-1.37,4.6-1.13,6.93-2.9.48-5.89.81-8.79.89h-2.26c-11.13-.4-20.8-5.56-27.9-14.27-1.21-1.45-3.31.65-2.1,2.1,5.97,7.34,13.95,12.66,23.3,14.43.73.16,1.53.24,2.26.32-4.76,2.9-9.76,5.64-15.24,6.93-1.61.4-3.31.65-5,.65h-.08c-3.06-.24-5.72-1.69-7.18-4.52-.73-1.45-1.53-4.03.08-5.24.56-.4,1.85-.48,2.5-.48,1.13-.24,1.69.24,1.53,1.45.48.73.48,1.37-.16,1.94-1.13,1.53,1.45,2.98,2.58,1.53,1.77-2.42,2.02-5.81-1.13-7.26-2.74-1.21-7.01-.56-8.55,2.18-1.53,2.66-.32,6.21,1.29,8.55-2.02-1.05-3.63-2.58-4.84-4.68-.89-1.69-3.47-.16-2.58,1.53,3.55,6.61,11.77,8.71,18.87,7.9,8.47-.97,15.96-5.64,23.06-10.08,3.63,0,7.34-.32,10.89-1.05.48,1.45,1.13,2.74,2.02,3.95,2.82,3.71,7.82,5,12.01,3.31,4.6-1.85,6.45-5.16,5.32-10-.4-1.85-3.31-1.05-2.9.81.97,3.95-1.45,6.29-5.32,6.93-3.87.65-6.85-2.26-8.14-5.64,3.39-.73,6.77-1.69,10.08-2.66,11.69-3.55,23.3-7.26,34.99-10.97,10.89-3.39,22.82-7.26,34.19-3.71,3.71,1.13,6.93,2.98,9.84,5.32-4.92-.73-10.16.48-14.67,2.18-.24.08-.48.16-.73.32h0c-.56.16-1.05.4-1.53.65-5.64,2.42-11.05,5.56-16.85,7.66-2.74,1.05-5.81,1.85-8.63,2.02-.16-.4-.4-.81-.48-1.21-.56-2.26,2.26-7.9,5.16-5.4,1.45,1.21,3.55-.89,2.1-2.1-3.47-2.98-8.55-.16-9.92,3.63-.56,1.61-.56,3.31-.08,4.84-2.42-.48-4.6-1.77-6.21-4.27-1.05-1.61-3.63-.08-2.58,1.53,2.74,4.11,6.37,5.72,10.4,5.97,1.13,1.45,2.58,2.74,4.27,3.47,4.6,2.1,9.43.16,13.14-2.82,2.1-1.69,4.03-3.71,5.72-5.81,1.77-2.26,3.47-4.27,6.37-5.24.16,0,.24-.08.4-.16,3.31-1.29,6.77-2.26,10.32-2.42,3.79-.16,7.66.65,10.16,3.63.89,1.05,1.69,2.18,2.42,3.39,1.29,2.1,2.5,4.27,3.47,6.45.48.97,1.45.97,2.1.32.81-.32,1.29-1.21.73-2.1-1.69-2.74-3.39-6.13-5.48-8.87l-.16.16ZM55.33,20.52c-.24-2.58.4-5.16,2.26-7.18,2.02-2.18,4.92-3.14,7.66-3.87.16,0,.24,0,.32-.16,5.81-1.21,11.45-1.05,16.45,3.23-.81.24-1.61.48-2.34.73-7.98,2.5-16.05,5.48-24.35,7.26ZM117.02,25.03c-3.14,2.66-7.42,4.76-11.37,2.42-.24-.16-.56-.32-.81-.56,5.4-.73,11.05-3.39,15.56-5.56,0,0,.16,0,.24-.08-1.13,1.37-2.34,2.66-3.71,3.87l.08-.08Z"/></svg>