<?xml version="1.0" encoding="UTF-8"?><svg id="Capa_1" xmlns="http://www.w3.org/2000/svg" viewBox="0 0 549.09 101.92"><defs><style>.cls-1{fill:#800020;stroke-width:0px;}</style></defs><path class="cls-1" d="M385.84,71.66c-4.74-1.76-6.81,6.31-1.29,7.04,1.29.17,2.43-.85,3.22-1.74,1.76-1.91.17-4.53-1.95-5.3h.02Z"/><path class="cls-1" d="M381.54,83.97c-2.39,2.18-.15,5.79,2.51,6.36,1.33.29,2.78-.17,3.78-1.97,1.95-3.49-3.55-6.89-6.29-4.42v.02Z"/><path class="cls-1" d="M376.41,82.13c2.1-1.79,2.1-5.27-1.35-5.28-2.53,0-5.23,1.56-3.86,4.38,1.12,2.31,3.34,2.49,5.19.89l.02.02Z"/><path class="cls-1" d="M173.72,77.89c-4.74-1.76-6.81,6.31-1.29,7.04,1.29.17,2.43-.85,3.22-1.74,1.76-1.91.17-4.53-1.95-5.3h.02Z"/><path class="cls-1" d="M169.42,90.19c-2.39,2.18-.15,5.79,2.51,6.36,1.33.29,2.78-.17,3.78-1.97,1.95-3.49-3.55-6.89-6.29-4.42v.02Z"/><path class="cls-1" d="M164.29,88.36c2.1-1.79,2.1-5.27-1.35-5.28-2.53,0-5.23,1.56-3.86,4.38,1.12,2.31,3.34,2.49,5.19.89l.02.02Z"/><path class="cls-1" d="M537.32,20.35c-4.74-1.76-6.81,6.31-1.29,7.04,1.29.17,2.43-.85,3.22-1.74,1.76-1.91.17-4.53-1.95-5.3h.02Z"/><path class="cls-1" d="M533.02,32.66c-2.39,2.18-.15,5.79,2.51,6.36,1.33.29,2.78-.17,3.78-1.97,1.95-3.49-3.55-6.89-6.29-4.42v.02Z"/><path class="cls-1" d="M527.89,30.83c2.1-1.79,2.1-5.27-1.35-5.28-2.53,0-5.23,1.56-3.86,4.38,1.12,2.31,3.34,2.49,5.19.89l.02.02Z"/><path class="cls-1" d="M528.47,64.81c-4.74-1.76-6.81,6.31-1.29,7.04,1.29.17,2.43-.85,3.22-1.74,1.76-1.91.17-4.53-1.95-5.3h.02Z"/><path class="cls-1" d="M524.17,77.12c-2.39,2.18-.15,5.79,2.51,6.36,1.33.29,2.78-.17,3.78-1.97,1.95-3.49-3.55-6.89-6.29-4.42v.02Z"/><path class="cls-1" d="M519.04,75.28c2.1-1.79,2.1-5.27-1.35-5.28-2.53,0-5.23,1.56-3.86,4.38,1.12,2.31,3.34,2.49,5.19.89l.02.02Z"/><path class="cls-1" d="M20.4,23.15c-4.74-1.76-6.81,6.31-1.29,7.04,1.29.17,2.43-.85,3.22-1.74,1.76-1.91.17-4.53-1.95-5.3h.02Z"/><path class="cls-1" d="M16.1,35.45c-2.39,2.18-.15,5.79,2.51,6.36,1.33.29,2.78-.17,3.78-1.97,1.95-3.49-3.55-6.89-6.29-4.42v.02Z"/><path class="cls-1" d="M10.97,33.62c2.1-1.79,2.1-5.27-1.35-5.28-2.53,0-5.23,1.56-3.86,4.38,1.12,2.31,3.34,2.49,5.19.89l.02.02Z"/><path class="cls-1" d="M29.25,64.81c-4.74-1.76-6.81,6.31-1.29,7.04,1.29.17,2.43-.85,3.22-1.74,1.76-1.91.17-4.53-1.95-5.3h.02Z"/><path class="cls-1" d="M24.95,77.12c-2.39,2.18-.15,5.79,2.51,6.36,1.33.29,2.78-.17,3.78-1.97,1.95-3.49-3.55-6.89-6.29-4.42v.02Z"/><path class="cls-1" d="M19.82,75.28c2.1-1.79,2.1-5.27-1.35-5.28-2.53,0-5.23,1.56-3.86,4.38,1.12,2.31,3.34,2.49,5.19.89l.02.02Z"/><path class="cls-1" d="M310.79,79.14c11.32-3.73,18.91-12.22,28.43-18.87,11.19-7.81,23.76-14.68,37.16-17.63,17.86-3.93,25.44,14.47,36.02,25.04,8.91,8.9,20.88,7.53,32.09,4.74,15.47-3.84,30.31-10.48,44.96-16.63,5.47-2.29,10.93-4.62,16.52-6.6,9.72-3.44,17.83,5.71,24.62,11.28,4.75,3.9,10.46,7.65,14.79,1.12,2.79-4.21,6.68-12.83.09-15.36-1.47-.56-2.03,1.73-.64,2.32,4.67,1.97-1.34,16.53-8.11,13.04-3.39-1.75-6.23-4.67-9.14-7.09-3.32-2.76-6.95-6-11.02-7.54-8.05-3.05-14.77.87-22.29,3.98-21.8,9.01-61.64,33.55-82.13,13.12-7.43-7.4-12.27-18.16-22.03-22.96-6.67-3.29-15.58-.69-22.12,1.42-9.93,3.2-19.21,8.72-27.89,14.39-10.12,6.61-18.2,16.16-29.9,20.03-1.4.46-.8,2.68.61,2.22h0Z"/><path class="cls-1" d="M471.21,63.2c7.1,1.21,13.51,5.26,18.68,10.12.76.72,2.2-.27,1.51-1.16-4.36-5.66-12.89-10.04-19.94-10.74-1.02-.1-1.25,1.62-.24,1.79h0Z"/><path class="cls-1" d="M478.13,63.99c12.51-1.89,20.16,14.05,29.36,19.8,1.25.78,2.21-1.07,1.12-1.92-8.57-6.6-18.3-22.81-30.99-19.74-1.23.3-.68,2.03.51,1.85h0Z"/><path class="cls-1" d="M508.5,82.4c-5.98-1.49-11.9-1.7-17.37-4.86-5.68-3.27-10.09-8.72-13.07-14.44-.7-1.33-2.72-.15-2.02,1.18,3.01,5.7,7.11,10.29,12.27,14.15,5.84,4.37,12.79,4.61,19.72,5.68,1.1.17,1.6-1.42.47-1.71h0Z"/><path class="cls-1" d="M491.5,54.16c1.17-3.45,4-6.22,5.45-9.63,1.3-3.07,2.53-5.96,5.62-7.57,1.16-.6.32-2.25-.85-2.01-3.29.67-4.96,3.98-6.22,6.78-.77,1.72-1.42,3.48-2.29,5.16-1.22,2.32-2.91,4.17-3.57,6.77-.31,1.21,1.46,1.67,1.85.51h0Z"/><path class="cls-1" d="M493.3,47.64c-8.15-8.32,15.11-24.65,19.13-30.17.8-1.11-1.05-2.54-1.9-1.46-4.78,6.12-29.45,23.49-18.52,32.92.88.76,2.12-.44,1.29-1.29h0Z"/><path class="cls-1" d="M510.42,16.86c-.17,6.71-1.33,12.82-4.58,18.75-3.1,5.66-8.46,8.47-13.18,12.47-1.04.88.29,2.48,1.42,1.84,12.25-6.99,18.76-18.96,18.27-33.06-.04-1.24-1.9-1.24-1.93,0h0Z"/><path class="cls-1" d="M433.6,73.92c1.58,2.66,4.76,4.41,7.35,5.92,2.91,1.69,6.3,3.45,9.68,3.88,1.13.15,1.24-1.57.26-1.9-5.75-1.9-11.57-4.64-15.87-8.99-.72-.73-1.93.21-1.41,1.09h0Z"/><path class="cls-1" d="M441.96,80.06c3.91.27,8,.84,11.53,2.64,3.53,1.81,5.03,6.02,8.95,7.28,1.1.36,1.51-1.12.73-1.72-3.23-2.45-5.84-6.45-9.66-7.99-3.63-1.47-7.63-2.1-11.54-1.99-1.15.03-1.13,1.7,0,1.78h0Z"/><path class="cls-1" d="M462.68,88.21c-7.57.61-14.65-4.16-19.78-9.3-.79-.79-2.29.28-1.59,1.23,3.95,5.34,14.71,12.19,21.6,9.78.87-.31.8-1.78-.23-1.7h0Z"/><path class="cls-1" d="M453.98,68.3c.82-5.72,2.25-11.67,5.06-16.75.72-1.29-1.28-2.46-1.98-1.16-2.93,5.44-4.27,11.56-4.86,17.67-.1,1.01,1.63,1.25,1.78.24h0Z"/><path class="cls-1" d="M338.08,78.05c.18-1.81,2.25-1.05,3.27-.44,1.48.88,2.64,2.57,1.74,4.26-.93,1.74-3.04,1.95-4.54.78-2.03-1.59-.98-3.51.59-4.93.84-.77-.25-2.17-1.21-1.57-2.96,1.86-3.65,5.63-.89,8.02,2.55,2.2,6.14,1.63,7.85-1.24,1.68-2.81-.34-5.96-2.92-7.28-2.41-1.24-5.53-.74-5.68,2.41-.06,1.17,1.67,1.12,1.79,0h0Z"/><path class="cls-1" d="M338.88,83.33c-8.83-4.43-18.57-6.65-28.46-6.57-1.32,0-1.31,1.99,0,2.04,9.56.36,18.81,2.08,27.58,6.04,1.01.46,1.9-1,.88-1.51h0Z"/><path class="cls-1" d="M313.98,77.33c1.15-10.22,9.44-20.19,15.06-28.29.64-.92-.81-2.03-1.55-1.19-4.7,5.37-8.42,11.6-11.57,17.99-1.7,3.44-3.75,7.58-3.79,11.49-.01,1.22,1.72,1.16,1.85,0h0Z"/><path class="cls-1" d="M330.34,44.46c3.99-2.79,7.38,5.3,2.7,6.53-1.51.4-2.91-1.05-3.56-2.22-.98-1.78-.18-3.5,1.32-4.64.99-.75.17-2.2-.98-1.67-5.91,2.74-1.96,12.2,4.03,10.63,3.21-.84,4.38-4.63,3.17-7.44-1.29-3.01-4.69-4.89-7.57-2.69-.87.67-.06,2.16.88,1.51h0Z"/><path class="cls-1" d="M457.99,45.86c3.99-2.79,7.38,5.3,2.7,6.53-1.51.4-2.91-1.05-3.56-2.22-.98-1.78-.18-3.5,1.32-4.64.99-.75.17-2.2-.98-1.67-5.91,2.74-1.96,12.2,4.03,10.63,3.21-.84,4.38-4.63,3.17-7.44-1.29-3.01-4.69-4.89-7.57-2.69-.87.66-.06,2.16.88,1.51h0Z"/><path class="cls-1" d="M336.87,61.65c8.4-.21,16.52-.56,24.83,1.09,1.2.24,1.72-1.55.51-1.85-8.32-2.06-16.85-1.55-25.34-1.13-1.21.06-1.22,1.92,0,1.89h0Z"/><path class="cls-1" d="M350.27,61.21c3.19,3.45,6.83,7.97,11.54,9.4,6.16,1.87,11.72-.33,17.49-2.59,1.24-.49.71-2.5-.56-2.02-5.74,2.2-11.5,4.71-17.58,2.06-3.78-1.65-6.67-5.36-9.59-8.15-.86-.82-2.1.43-1.3,1.3h0Z"/><path class="cls-1" d="M351.17,61.45c9.94-2.79,17.9,3.09,27.14,5.59,1.38.37,1.96-1.75.59-2.13-9.53-2.63-18.08-8.7-28.22-5.23-1.11.38-.66,2.09.49,1.76h0Z"/><path class="cls-1" d="M343.2,57.5c2.35-3.41,3.87-7.26,6.3-10.68,2.63-3.71,5.68-7,9.01-10.09.99-.92-.44-2.24-1.44-1.44-3.35,2.66-6.05,5.91-8.62,9.31-2.88,3.82-4.4,7.97-6.87,11.96-.65,1.04.95,1.94,1.63.95h0Z"/><path class="cls-1" d="M348.58,47.27c-.95-5.8,5.37-11.14,9.91-13.56,2.26-1.2,4.61-2.26,6.73-3.69,2.13-1.43,3.64-3.42,6.03-4.5-.55-.32-1.11-.64-1.66-.95.57,11.62-13.11,17.7-21.8,21.99-1.07.53-.32,2.27.81,1.91,9.8-3.15,23.76-12.21,23.2-23.9-.04-.89-.89-1.3-1.66-.95-3.19,1.44-5.39,4.29-8.47,5.95-2.94,1.58-5.87,2.98-8.47,5.1-3.83,3.13-7.42,7.92-6.4,13.1.23,1.18,1.96.66,1.78-.49h0Z"/><path class="cls-1" d="M382.63,41.64c11.03,7.62,14.55,21.71,24.61,30.23.96.81,2.32-.49,1.4-1.4-9.4-9.3-13.69-23.05-25.13-30.35-.96-.61-1.8.88-.88,1.51h0Z"/><path class="cls-1" d="M392.52,51.42c11.55,4.76,12.16,19.89,20.93,27.58,1.01.88,2.48-.57,1.48-1.48-8.96-8.13-9.48-23.19-21.94-27.78-1.07-.39-1.48,1.26-.46,1.68h0Z"/><path class="cls-1" d="M414.01,77.42c-12.86-2.51-14.84-17.74-20.41-27.33-.65-1.12-2.18-.14-1.68.98,4.27,9.78,8.97,27.08,21.86,28.06.98.07,1.19-1.52.23-1.71h0Z"/><path class="cls-1" d="M380.92,41.66c7.86-2.53,10.69-11.81,15.86-17.45.87-.95-.44-2.23-1.4-1.4-5.86,5.09-7.73,13.81-15.16,17.19-.94.43-.27,1.96.7,1.65h0Z"/><path class="cls-1" d="M388.84,34.52c-3.97-12.53,13.72-17.94,17.59-27.8.43-1.11-1.26-1.7-1.84-.78-5.45,8.54-22.69,17.15-17.39,29.27.41.94,1.95.27,1.64-.69h0Z"/><path class="cls-1" d="M404.52,6.45c-.59,10.76-3.93,25.29-16.41,27.3-1.17.19-.88,2.1.28,2.05,13.36-.52,18.25-18.47,18-29.35-.03-1.21-1.79-1.19-1.86,0h0Z"/><path class="cls-1" d="M384.65,41.81c12.81-2.35,23.25,3.17,33.61,10.04,1.09.72,2-.97,1-1.72-10.06-7.58-22.33-13.22-35.07-9.94-1.06.27-.6,1.82.45,1.62h0Z"/><path class="cls-1" d="M403.19,42.69c12.18-1.67,18.89,10.32,27.75,16.27.97.65,2.16-.87,1.26-1.63-8.28-6.94-17.26-19.06-29.48-16.36-1.15.25-.63,1.87.48,1.72h0Z"/><path class="cls-1" d="M431.43,58.03c-12.15,4.55-21.49-7.5-27.63-16.31-.72-1.03-2.42-.05-1.7.99,6.44,9.18,17.28,23.05,30.02,16.97.92-.44.26-2-.69-1.64h0Z"/><path class="cls-1" d="M279.35,68.11c-1.63-2.42-4.55-2.05-6.61-.43-2.25,1.78-2.33,4.86-.42,6.89,3.83,4.08,10.62-2.91,6.08-6.61-.75-.61-2.1.2-1.44,1.11.85,1.18,1.31,2.4.25,3.62-.77.89-2.23,1.39-3.25.6-2.96-2.29,1.59-6.79,3.82-3.98.71.89,2.21-.28,1.58-1.22h0Z"/><path class="cls-1" d="M278.21,68.49c5.45-4.07,10.31-11.42,10.65-18.32.37-7.4-9.54-8.62-14.9-8.85-5.34-.22-15.04,1.64-15.29,8.68-.16,4.51,2.69,8.08,5.68,11.19,2.72,2.82,5.95,6.79,10.08,7.25,1.29.14,1.46-1.84.3-2.19-5.21-1.56-11.81-9.08-13.52-14.06-2.57-7.49,9.46-8.64,13.83-8.47,5.77.24,12.8,1.89,11.36,9.08-1.03,5.17-4.96,10.89-9.11,14.09-.92.71-.03,2.29.93,1.58h0Z"/><path class="cls-1" d="M262.57,56.55c-4.89-2.72-9.31-.44-12.54,3.67-3.36,4.27-3.47,9.53-2.41,14.61.88,4.22,3.55,9.44,7.85,11.04,6.25,2.33,12.36-1.89,17.05-5.72.83-.68-.25-2.05-1.13-1.47-3.75,2.45-7.76,5.53-12.39,5.73-4.38.19-7.15-4.29-8.52-7.78-2.77-7.01.28-23.38,11.14-18.44,1.1.5,2.06-1.04.96-1.65h0Z"/><path class="cls-1" d="M278.92,74.26c5.64,2.91,15.19,16.18,9.54,22.22-3.29,3.51-10.59,3.46-14.88,2.68-6.51-1.18-10.88-6.3-10.19-13,.16-1.56-2.27-1.54-2.44,0-1.62,15.06,16.62,18.86,27.42,13.39,10.87-5.5-1.15-23.74-8.47-26.98-1.13-.5-2.13,1.1-.99,1.69h0Z"/><path class="cls-1" d="M287.41,57.26c21.59-17.07,17.49,33.75,3.03,26.15-.99-.52-2.18.84-1.24,1.61,10.6,8.71,15.77-11.75,15.74-18.68-.02-4.11-1.64-10.9-5.36-13.35-4.49-2.95-9.93-.21-13.57,2.86-1,.84.42,2.19,1.41,1.41h0Z"/><path class="cls-1" d="M277.59,67.07c1.07-2.48,3.28-11.7-1.13-12.29-5.85-.78-2.38,9.17-1.34,11.6.44,1.03,1.83.23,1.68-.71-.2-1.22-3.52-9.56-.59-9.04,2.06.37.1,8.42-.42,9.68-.42,1.03,1.36,1.78,1.8.76h0Z"/><path class="cls-1" d="M274.5,74.76c-1.69,1-1.71,5.03-1.74,6.72-.04,2.3.79,5.12,3.53,5.14,4.64.03,1.38-9.81.57-11.88-.46-1.17-2.37-.67-1.91.53.52,1.35.89,2.77,1.21,4.19.27,1.2,1.06,3.95.19,5.07-.56.72-1.31-1.02-1.39-1.3-.27-.96-.19-2.05-.12-3.03.11-1.47,1.06-3.26.92-4.69-.06-.61-.67-1.08-1.27-.73h0Z"/><path class="cls-1" d="M279.33,70.31c1.82-1.14,4.22-3.56,6.55-2.97,1.12.28,1.47,1.41.52,2.09-.81.58-1.87.65-2.82.51-1.55-.22-2.93-1.03-4.52-1.04-1.1,0-1.34,1.65-.26,1.92,2.37.59,4.71,1.64,7.18,1.06,1.78-.41,3.96-2.32,2.97-4.33-2.41-4.91-7.73-.84-10.51,1.23-.89.66-.1,2.14.89,1.52h0Z"/><path class="cls-1" d="M272.45,69.71c-1.43-1.53-3.89-1.65-5.75-.98-2.18.78-3.29,2.76-2.85,5.01.39,2.02,2.44,2.46,4.14,1.91,1.88-.61,3.83-2.17,4.6-4.01.45-1.08-1.26-1.71-1.83-.77-.58.95-4.3,4.76-5.02,2.36-.43-1.44.84-2.37,2.05-2.7,1.24-.34,2.48-.02,3.53.67.92.61,1.84-.72,1.14-1.48h0Z"/><path class="cls-1" d="M238.86,76.92c-10.97-3.63-18.62-12.19-27.87-18.65-8.5-5.94-17.66-10.91-27.27-14.8-7.68-3.11-16.43-5.15-24.5-2.51-8.73,2.86-14.91,14.31-20.43,20.98-19.37,23.4-59.34-.64-81.32-9.89-7.01-2.95-14.6-7.45-22.39-6.09-3.99.7-8.05,4.02-11.05,6.45-3.18,2.57-6.29,5.22-9.53,7.71-8.24,6.33-15.38-9.43-10.28-11.57,1.39-.59.83-2.89-.64-2.32-5.81,2.23-3.28,9.18-1.17,13.47,4.03,8.18,9.97,5.45,15.77.99,6.34-4.88,14.22-14.48,23.29-12,5.24,1.43,10.3,3.85,15.3,5.93,15.71,6.54,31.35,13.28,47.78,17.81,9.9,2.73,21.59,4.25,30.03-2.98,10.75-9.21,17.45-27.53,33.51-27.37,13.99.14,28.37,9.44,39.69,16.83,10.4,6.78,18.39,16.26,30.47,20.24,1.41.47,2.01-1.75.61-2.22h0Z"/><path class="cls-1" d="M77.59,61.41c-7.05.71-15.58,5.08-19.94,10.74-.69.89.75,1.88,1.51,1.16,5.17-4.86,11.58-8.91,18.68-10.12,1.01-.17.78-1.89-.24-1.79h0Z"/><path class="cls-1" d="M71.42,62.14c-12.69-3.07-22.42,13.13-30.99,19.74-1.1.84-.13,2.7,1.12,1.92,9.2-5.75,16.85-21.7,29.36-19.8,1.19.18,1.74-1.55.51-1.85h0Z"/><path class="cls-1" d="M41.02,84.1c7.22-1.12,13.49-1.57,19.72-5.68,5.26-3.47,9.36-8.62,12.27-14.15.7-1.33-1.32-2.51-2.02-1.18-3.12,5.99-7.44,10.72-13.07,14.44-5.16,3.41-11.56,3.41-17.37,4.86-1.13.28-.63,1.88.47,1.71h0Z"/><path class="cls-1" d="M59.4,53.65c-1-3.91-3.92-7.38-5.53-11.14-1.29-3.03-2.98-6.84-6.55-7.57-1.17-.24-2.01,1.41-.85,2.01,3.1,1.61,4.32,4.51,5.62,7.57,1.46,3.41,4.28,6.19,5.45,9.63.4,1.16,2.16.7,1.85-.51h0Z"/><path class="cls-1" d="M57.03,48.93c10.93-9.43-13.74-26.81-18.52-32.92-.84-1.08-2.7.36-1.89,1.46,4.01,5.52,27.27,21.86,19.13,30.17-.83.85.41,2.05,1.29,1.29h0Z"/><path class="cls-1" d="M36.69,16.86c-.49,14.1,6.02,26.07,18.27,33.06,1.13.64,2.46-.96,1.42-1.84-4.24-3.59-8.78-6.18-12.1-10.79-4.27-5.94-5.49-13.29-5.66-20.43-.03-1.24-1.88-1.24-1.93,0h0Z"/><path class="cls-1" d="M114.03,72.83c-4.31,4.35-10.12,7.09-15.87,8.99-.98.32-.87,2.04.26,1.9,3.15-.4,6.13-1.99,8.9-3.45,2.83-1.5,6.43-3.5,8.12-6.35.52-.88-.69-1.81-1.41-1.09h0Z"/><path class="cls-1" d="M107.08,78.28c-3.91-.11-7.91.52-11.54,1.99-3.82,1.55-6.43,5.54-9.66,7.99-.79.6-.37,2.08.73,1.72,3.22-1.04,5.14-4,7.52-6.25,3.13-2.96,8.89-3.4,12.95-3.68,1.13-.08,1.15-1.74,0-1.78h0Z"/><path class="cls-1" d="M86.13,89.91c6.89,2.42,17.65-4.44,21.6-9.78.7-.95-.8-2.02-1.59-1.23-5.13,5.14-12.21,9.91-19.78,9.3-1.03-.08-1.1,1.4-.23,1.7h0Z"/><path class="cls-1" d="M96.84,68.06c-.59-6.11-1.92-12.23-4.86-17.67-.7-1.3-2.7-.14-1.98,1.16,2.81,5.08,4.24,11.03,5.06,16.75.14,1.01,1.88.77,1.78-.24h0Z"/><path class="cls-1" d="M212.75,78.05c-.16-3.23-3.25-3.55-5.68-2.41-2.76,1.3-4.38,4.45-2.92,7.28,1.6,3.11,5.34,3.21,7.85,1.24,2.9-2.27,1.94-6.23-.89-8.02-.96-.6-2.06.8-1.21,1.57,1.55,1.41,2.53,3.1.76,4.78-1.37,1.31-3.5,1.17-4.57-.4-1.12-1.65-.06-3.38,1.4-4.37,1-.68,3.28-1.57,3.47.32.11,1.12,1.84,1.17,1.79,0h0Z"/><path class="cls-1" d="M211.05,84.83c8.76-3.96,18.01-5.68,27.58-6.04,1.31-.05,1.32-2.03,0-2.04-9.89-.08-19.63,2.15-28.46,6.57-1.02.51-.13,1.96.88,1.51h0Z"/><path class="cls-1" d="M236.92,77.33c-.04-3.48-1.75-6.98-3.14-10.1-3.07-6.92-7.24-13.68-12.22-19.38-.73-.84-2.18.27-1.55,1.19,5.61,8.1,13.9,18.06,15.06,28.29.13,1.16,1.87,1.22,1.85,0h0Z"/><path class="cls-1" d="M219.58,42.95c-2.78-2.13-6.05-.45-7.45,2.41-1.46,2.99-.23,6.35,2.83,7.64,2.57,1.08,5.35-.95,6.54-3.11,1.49-2.73.59-6.11-2.28-7.44-1.15-.53-1.96.92-.98,1.67,1.46,1.11,2.21,2.65,1.43,4.42-.61,1.39-1.93,2.55-3.5,2.47-2.09-.1-2.72-2.65-2.29-4.27.59-2.21,2.78-3.72,4.83-2.29.94.66,1.75-.84.88-1.51h0Z"/><path class="cls-1" d="M91.93,44.35c-2.78-2.13-6.05-.45-7.45,2.41-1.46,2.99-.23,6.35,2.83,7.64,2.57,1.08,5.35-.95,6.54-3.11,1.49-2.73.59-6.11-2.28-7.44-1.15-.53-1.96.92-.98,1.67,1.46,1.11,2.21,2.65,1.43,4.42-.61,1.39-1.93,2.55-3.5,2.47-2.09-.1-2.72-2.65-2.29-4.27.59-2.21,2.78-3.72,4.83-2.29.94.66,1.75-.84.88-1.51h0Z"/><path class="cls-1" d="M212.17,59.76c-8.48-.42-17.02-.93-25.33,1.13-1.21.3-.69,2.08.51,1.85,8.31-1.65,16.42-1.3,24.83-1.09,1.22.03,1.21-1.83,0-1.89h0Z"/><path class="cls-1" d="M197.47,59.91c-3.07,2.94-5.85,6.03-9.59,8.15-5.57,3.16-12.22,0-17.58-2.06-1.26-.48-1.79,1.53-.56,2.02,5.76,2.26,11.32,4.46,17.49,2.59,4.71-1.43,8.35-5.95,11.54-9.4.8-.87-.44-2.12-1.3-1.3h0Z"/><path class="cls-1" d="M198.36,59.68c-10.14-3.47-18.68,2.6-28.22,5.23-1.37.38-.79,2.5.59,2.13,9.24-2.5,17.2-8.39,27.14-5.59,1.15.32,1.59-1.39.49-1.76h0Z"/><path class="cls-1" d="M207.46,56.55c-2.46-3.97-4.07-8.11-6.87-11.96-2.49-3.43-5.3-6.67-8.62-9.31-1-.8-2.43.53-1.44,1.44,3.34,3.1,6.31,6.41,9.01,10.09,2.5,3.4,3.94,7.26,6.3,10.68.68.99,2.28.09,1.63-.95h0Z"/><path class="cls-1" d="M202.24,47.76c1.05-5.32-2.66-9.76-6.4-13.1-2.48-2.21-5.55-3.56-8.47-5.1-3.1-1.64-5.28-4.51-8.47-5.95-.77-.35-1.62.06-1.66.95-.56,11.7,13.4,20.75,23.2,23.9,1.12.36,1.87-1.38.81-1.91-8.69-4.29-22.36-10.37-21.8-21.99-.55.32-1.11.64-1.66.95,2.25,1.02,3.91,2.8,5.8,4.33,2.02,1.64,4.66,2.66,6.96,3.86,4.55,2.38,10.85,7.8,9.91,13.56-.19,1.15,1.54,1.67,1.78.49h0Z"/><path class="cls-1" d="M165.52,40.13c-11.44,7.3-15.73,21.05-25.13,30.35-.92.91.44,2.22,1.4,1.4,10.06-8.52,13.58-22.61,24.61-30.23.92-.63.08-2.13-.88-1.51h0Z"/><path class="cls-1" d="M156.05,49.73c-12.46,4.59-12.98,19.65-21.94,27.78-1,.91.47,2.36,1.48,1.48,8.77-7.69,9.38-22.82,20.93-27.58,1.01-.42.61-2.08-.46-1.68h0Z"/><path class="cls-1" d="M135.27,79.12c12.89-.97,17.59-18.28,21.86-28.06.49-1.12-1.04-2.1-1.68-.98-5.57,9.6-7.55,24.82-20.41,27.33-.96.19-.75,1.78.23,1.71h0Z"/><path class="cls-1" d="M168.81,40.01c-7.43-3.39-9.3-12.11-15.16-17.19-.96-.83-2.26.45-1.4,1.4,5.17,5.64,8,14.92,15.86,17.45.96.31,1.63-1.22.7-1.65h0Z"/><path class="cls-1" d="M161.85,35.21c5.3-12.12-11.93-20.73-17.39-29.27-.59-.92-2.28-.33-1.84.78,3.87,9.86,21.55,15.26,17.59,27.8-.3.96,1.23,1.63,1.64.69h0Z"/><path class="cls-1" d="M142.66,6.45c-.26,10.88,4.64,28.83,18,29.35,1.16.05,1.45-1.87.28-2.05-12.48-2.01-15.82-16.54-16.41-27.3-.07-1.19-1.83-1.21-1.86,0h0Z"/><path class="cls-1" d="M164.83,40.19c-12.73-3.28-25,2.36-35.07,9.94-1,.75-.09,2.44,1,1.72,10.36-6.86,20.81-12.39,33.61-10.04,1.05.19,1.51-1.35.45-1.62h0Z"/><path class="cls-1" d="M146.33,40.97c-12.22-2.7-21.2,9.42-29.48,16.36-.9.76.28,2.28,1.26,1.63,8.86-5.95,15.58-17.94,27.75-16.27,1.1.15,1.63-1.47.47-1.72h0Z"/><path class="cls-1" d="M116.91,59.68c12.74,6.09,23.58-7.79,30.02-16.97.73-1.04-.98-2.02-1.7-.99-6.14,8.81-15.49,20.87-27.63,16.31-.95-.36-1.61,1.21-.69,1.64h0Z"/><path class="cls-1" d="M444.19,24.66c-1-4.48-8.13-1.97-7.34,2.12.77,3.97,8.21,4.42,7.69-.22-.11-.99-1.51-1.03-1.56,0-.13,2.44-3.71,2.17-4.45.21-.87-2.3,3.56-4.29,4.31-1.74.26.87,1.55.51,1.36-.37h0Z"/><path class="cls-1" d="M457.67,16.83c-1.22-6.33-6.96-11.66-13.67-10.9-1.02.12-1.07,1.61,0,1.63,6.25.1,10.76,3.5,12.27,9.66.22.91,1.57.52,1.39-.38h0Z"/><path class="cls-1" d="M441.99,21.86c1.41-5.76,6.11-14.35-.71-18.5-4.44-2.7-10.86.56-14.34,3.36-3.77,3.03-9.78,8.67-6.25,13.87,2.91,4.29,10.98,5.64,15.72,5.37,1.1-.06,1.12-1.72,0-1.72-3.95-.01-7.93-.91-11.49-2.61-6.99-3.34-1.43-9.69,2.41-13.01,3.17-2.75,7.34-4.91,11.64-4.3,8.05,1.14,2.57,12.63,1.66,17.17-.18.89,1.15,1.27,1.37.38h0Z"/><path class="cls-1" d="M423,22.89c-10.41,2.84-5.94,16.58.57,21.39,8.24,6.09,16.46-7.96,18.01-14.57.2-.84-1.01-1.42-1.44-.61-2.49,4.78-6.19,16.04-13.29,14.89-3.74-.61-6.53-6.15-7.69-9.31-1.65-4.51-.53-8.69,4.24-10.32.92-.32.55-1.73-.41-1.47h0Z"/><path class="cls-1" d="M443.76,26.6c6.13.79,17.12,6.14,10.2,13.07-4.03,4.03-13.7,8.8-17.08,1.9-.42-.85-1.76-.25-1.5.63,2.8,9.55,16.09,2.5,20.39-1.81,7.74-7.75-4.97-15.12-12.01-15.34-1.02-.03-.96,1.42,0,1.54h0Z"/><path class="cls-1" d="M456.46,19c3.02,3.51.74,7.15-2.56,9.36-.81.54-.1,1.77.76,1.3,4.44-2.39,6.68-7.72,2.82-11.69-.66-.68-1.63.32-1.03,1.03h0Z"/><path class="cls-1" d="M463.86,1.06c-2.11-1.22-5.48-1.83-6.93.68-1.25,2.16-.01,5.05,1.94,6.28,1.65,1.04,3.89.98,5.42-.22,2.06-1.62,1.02-4.72-.12-6.53-.53-.85-1.79-.1-1.34.78.65,1.26,1.61,3.25.4,4.47-.8.81-2.27.67-3.21.23-1.5-.69-2.21-2.37-1.8-3.96.55-2.11,3.66-1.2,4.93-.52.8.43,1.5-.76.71-1.21h0Z"/><path class="cls-1" d="M439.14,22.79c-1.15-1.65-1.43-4.01-3.26-5.12-.74-.45-1.6.63-.94,1.21,1.42,1.25,1.77,3.19,2.9,4.67.57.74,1.85.05,1.29-.75h0Z"/><path class="cls-1" d="M438.18,28.01c-.98-.25-2.06.55-2.85,1.02-1.14.67-2.65,1.44-3.54,2.43-.49.55-.02,1.51.75,1.28,1.06-.32,2.05-1.23,2.96-1.84.5-.33,1-.66,1.5-.97.23-.14.46-.28.7-.41.08-.04.53-.18.29-.17.75-.04.95-1.15.18-1.34h0Z"/><path class="cls-1" d="M104.82,24.26c-.66-2.95-5.36-1.3-4.83,1.39.51,2.61,5.4,2.91,5.06-.14-.07-.65-.99-.68-1.03,0-.09,1.61-2.44,1.43-2.93.14-.57-1.51,2.34-2.83,2.83-1.14.17.57,1.02.34.89-.25h0Z"/><path class="cls-1" d="M113.7,19.1c-.8-4.17-4.58-7.68-9-7.18-.67.08-.71,1.06,0,1.07,4.11.06,7.09,2.31,8.08,6.36.15.6,1.03.34.92-.25h0Z"/><path class="cls-1" d="M103.37,22.41c.93-3.8,4.02-9.45-.46-12.18-2.92-1.78-7.15.37-9.44,2.21-2.48,1.99-6.44,5.71-4.12,9.13,1.91,2.82,7.23,3.72,10.35,3.54.72-.04.74-1.13,0-1.13-2.6,0-5.22-.6-7.57-1.72-4.6-2.2-.94-6.38,1.58-8.57,2.09-1.81,4.83-3.23,7.66-2.83,5.3.75,1.69,8.32,1.09,11.3-.12.58.76.84.9.25h0Z"/><path class="cls-1" d="M90.87,23.09c-6.85,1.87-3.91,10.92.38,14.09,5.43,4.01,10.84-5.24,11.86-9.6.13-.56-.67-.94-.95-.4-1.64,3.15-4.08,10.56-8.75,9.81-2.46-.4-4.3-4.05-5.06-6.13-1.09-2.97-.35-5.72,2.79-6.8.61-.21.36-1.14-.27-.97h0Z"/><path class="cls-1" d="M104.54,25.54c4.04.52,11.27,4.05,6.72,8.61-2.65,2.65-9.02,5.79-11.25,1.25-.27-.56-1.16-.16-.99.42,1.85,6.29,10.6,1.65,13.43-1.19,5.1-5.11-3.27-9.96-7.91-10.1-.67-.02-.63.94,0,1.02h0Z"/><path class="cls-1" d="M112.9,20.53c1.99,2.31.49,4.71-1.69,6.16-.53.35-.07,1.16.5.86,2.92-1.57,4.4-5.08,1.86-7.7-.43-.45-1.07.21-.68.68h0Z"/><path class="cls-1" d="M117.78,8.71c-1.39-.8-3.61-1.2-4.57.45-.82,1.42,0,3.33,1.28,4.13,1.09.68,2.56.65,3.57-.14,1.35-1.07.67-3.11-.08-4.3-.35-.56-1.18-.07-.88.51.43.83,1.06,2.14.26,2.94-.53.53-1.49.44-2.11.15-.99-.46-1.46-1.56-1.19-2.61.36-1.39,2.41-.79,3.25-.34.53.28.99-.5.47-.8h0Z"/><path class="cls-1" d="M101.49,23.03c-.76-1.09-.94-2.64-2.14-3.37-.49-.3-1.05.41-.62.8.94.82,1.17,2.1,1.91,3.07.38.49,1.22.03.85-.5h0Z"/><path class="cls-1" d="M100.86,26.46c-.64-.16-1.35.36-1.88.67-.75.44-1.75.95-2.33,1.6-.32.36-.02,1,.49.84.7-.21,1.35-.81,1.95-1.21.33-.22.66-.44.99-.64.15-.09.31-.18.46-.27.05-.03.35-.12.19-.11.5-.02.63-.75.12-.88h0Z"/></svg>